<?xml version="1.0" encoding="utf-8"?>
<!-- Generator: Adobe Illustrator 17.0.0, SVG Export Plug-In . SVG Version: 6.00 Build 0)  -->
<!DOCTYPE svg PUBLIC "-//W3C//DTD SVG 1.1//EN" "http://www.w3.org/Graphics/SVG/1.1/DTD/svg11.dtd">
<svg version="1.1" id="Capa_1" xmlns="http://www.w3.org/2000/svg" xmlns:xlink="http://www.w3.org/1999/xlink" x="0px" y="0px"
	 width="50px" height="50.001px" viewBox="45.843 45.842 50 50.001" enable-background="new 45.843 45.842 50 50.001"
	 xml:space="preserve">
<g>
	<path fill="#B3B3B3" d="M82.815,45.851l-6.484-0.01c-7.284,0-11.992,4.83-11.992,12.305v5.673H57.82c-0.563,0-1.02,0.457-1.02,1.02
		v8.22c0,0.563,0.457,1.02,1.02,1.02h6.519v20.742c0,0.563,0.456,1.02,1.02,1.02h8.506c0.563,0,1.02-0.457,1.02-1.02V74.079h7.623
		c0.563,0,1.02-0.456,1.02-1.02l0.003-8.22c0-0.27-0.108-0.53-0.299-0.721s-0.451-0.299-0.721-0.299h-7.625v-4.809
		c0-2.312,0.551-3.485,3.562-3.485l4.368-0.002c0.563,0,1.019-0.457,1.019-1.02V46.87C83.833,46.308,83.378,45.852,82.815,45.851z"
		/>
</g>
</svg>
