<?xml version="1.0" encoding="utf-8"?>
<!-- Generator: Adobe Illustrator 17.0.0, SVG Export Plug-In . SVG Version: 6.00 Build 0)  -->
<!DOCTYPE svg PUBLIC "-//W3C//DTD SVG 1.1//EN" "http://www.w3.org/Graphics/SVG/1.1/DTD/svg11.dtd">
<svg version="1.1" id="Capa_1" xmlns="http://www.w3.org/2000/svg" xmlns:xlink="http://www.w3.org/1999/xlink" x="0px" y="0px"
	 width="50px" height="50.001px" viewBox="23.697 23.697 50 50.001" enable-background="new 23.697 23.697 50 50.001"
	 xml:space="preserve">
<g>
	<path fill="#B3B3B3" d="M30.115,23.697H67.28c3.529,0,6.417,2.613,6.417,6.417V67.28c0,3.804-2.888,6.417-6.417,6.417H30.115
		c-3.53,0-6.418-2.613-6.418-6.417V30.114C23.697,26.31,26.585,23.697,30.115,23.697L30.115,23.697z M60.12,29.252
		c-1.238,0-2.25,1.012-2.25,2.251v5.388c0,1.238,1.012,2.251,2.25,2.251h5.651c1.238,0,2.251-1.013,2.251-2.251v-5.388
		c0-1.239-1.013-2.251-2.251-2.251H60.12L60.12,29.252z M68.046,44.842h-4.401c0.416,1.359,0.642,2.799,0.642,4.289
		c0,8.317-6.959,15.058-15.542,15.058c-8.583,0-15.541-6.742-15.541-15.058c0-1.491,0.225-2.93,0.642-4.289h-4.592v21.121
		c0,1.093,0.894,1.988,1.988,1.988H66.06c1.093,0,1.988-0.894,1.988-1.988V44.842H68.046z M48.744,38.858
		c-5.545,0-10.042,4.356-10.042,9.73s4.496,9.73,10.042,9.73c5.546,0,10.043-4.356,10.043-9.73S54.291,38.858,48.744,38.858z"/>
</g>
</svg>
