<?xml version="1.0" encoding="utf-8"?>
<!-- Generator: Adobe Illustrator 17.0.0, SVG Export Plug-In . SVG Version: 6.00 Build 0)  -->
<!DOCTYPE svg PUBLIC "-//W3C//DTD SVG 1.1//EN" "http://www.w3.org/Graphics/SVG/1.1/DTD/svg11.dtd">
<svg version="1.1" id="Layer_1" xmlns="http://www.w3.org/2000/svg" xmlns:xlink="http://www.w3.org/1999/xlink" x="0px" y="0px"
	 width="263.816px" height="99.204px" viewBox="0 0 263.816 99.204" enable-background="new 0 0 263.816 99.204"
	 xml:space="preserve">
<g>
	<path d="M33.873,54.148l2.688-0.252c0.223,0,0.336,0.057,0.336,0.168c0,0.561-1.638,0.84-4.914,0.84s-6.174-0.896-8.694-2.688
		c-3.023-2.071-4.536-4.956-4.536-8.652c0-12.264,10.584-21.252,31.752-26.964c0.28-2.688,0.421-5.572,0.421-8.652
		c0-0.336,0.168-0.532,0.504-0.588c0.336,0.057,0.504,1.05,0.504,2.982c0,1.932-0.057,3.906-0.168,5.922l7.056-1.68
		c1.344-3.304,2.785-5.599,4.326-6.888c1.539-1.288,4.018-1.932,7.434-1.932c1.456,0,2.856,0.308,4.2,0.924
		c1.567,0.896,2.353,1.988,2.353,3.276c0,1.68-1.331,2.787-3.99,3.318c-2.661,0.533-5.811,1.079-9.45,1.638
		c-4.368,14-6.888,22.008-7.56,24.024c-6.608,19.824-16.269,33.039-28.98,39.648c-2.576,1.398-5.447,2.1-8.61,2.1
		S12.132,79.349,8.8,76.66c-3.332-2.688-4.998-5.685-4.998-8.988c0-0.392,0.112-0.588,0.336-0.588c0.056,0,0.154,0.224,0.294,0.672
		c0.141,0.448,0.546,1.456,1.218,3.024c2.184,4.423,6.132,6.636,11.844,6.636c3.36,0,6.691-0.84,9.996-2.52
		c6.832-3.528,12.264-8.82,16.296-15.876c2.521-4.536,5.264-11.731,8.232-21.588c1.455-5.04,3.556-12.208,6.3-21.504l-6.72,1.68
		c-0.953,9.576-3.444,19.404-7.477,29.484c-4.704,11.76-10.304,19.936-16.8,24.527c-2.969,2.017-5.489,3.024-7.56,3.024
		c-0.504,0-0.757-0.168-0.757-0.504s0.224-0.561,0.673-0.672c6.663-0.896,12.906-6.777,18.731-17.641
		C44.849,43.9,48.853,31.273,50.421,17.944c-19.097,5.712-28.644,14.252-28.644,25.62c0,3.305,1.161,5.895,3.486,7.77
		C27.587,53.211,30.457,54.148,33.873,54.148z M76.461,9.544c0-1.903-1.512-2.856-4.535-2.856c-2.521,0-5.013,2.325-7.477,6.972
		c1.624-0.168,4.928-0.784,9.912-1.848C75.761,11.253,76.461,10.498,76.461,9.544z"/>
	<path d="M84.778,56.584v0.168c-1.961,2.688-4.116,4.032-6.468,4.032c-2.353,0-3.528-2.071-3.528-6.216c0-1.68,0.139-4.06,0.42-7.14
		c-2.129,4.031-5.628,7.952-10.5,11.76c-0.504,0.393-1.457,1.121-2.856,2.184c-0.28,0.224-0.77,0.336-1.47,0.336
		s-1.05-0.168-1.05-0.504c0-2.016,0.909-4.788,2.73-8.315c1.818-3.528,2.953-6.061,3.401-7.602c0.447-1.54,0.672-3.709,0.672-6.51
		c-0.225,0.896-1.232,2.885-3.023,5.964c-2.688,4.649-4.2,6.971-4.536,6.971s-0.504-0.111-0.504-0.335l2.52-4.284
		c2.688-4.704,4.424-8.652,5.208-11.844c0.336-1.456,1.008-2.184,2.017-2.184c1.008,0,1.512,1.274,1.512,3.822
		c0,2.549-0.729,6.119-2.185,10.71L63.61,58.601c4.704-3.583,8.623-7.98,11.76-13.188c0.56-3.919,1.315-6.496,2.268-7.728
		c0.337-0.391,0.967-0.588,1.891-0.588s1.386,0.308,1.386,0.924c0,1.68-0.533,3.221-1.596,4.62c-1.232,4.2-1.849,8.289-1.849,12.264
		c0,2.688,0.841,4.032,2.521,4.032c0.84,0,1.693-0.364,2.562-1.092s1.429-1.204,1.681-1.429c0.252-0.223,0.349-0.336,0.294-0.336
		C84.694,56.08,84.778,56.248,84.778,56.584z"/>
	<path d="M106.114,48.856c0.168,0,0.252,0.113,0.252,0.336c0,0.225-0.057,0.42-0.168,0.588c-1.904,3.192-4.257,5.069-7.057,5.627
		c-0.168,1.961-0.771,3.612-1.806,4.956c-1.037,1.344-2.717,2.016-5.04,2.016c-2.324,0-4.522-1.104-6.594-3.317
		c-2.072-2.212-3.108-4.634-3.108-7.267c0-1.734,0.447-2.604,1.344-2.604c0.56,0,1.12,0.42,1.681,1.26
		c1.68-3.919,4.06-8.344,7.14-13.272c1.96-3.024,4.255-4.536,6.888-4.536c0.56,0,1.219,0.21,1.975,0.63s1.134,0.882,1.134,1.386
		c0,0.393-0.239,0.588-0.714,0.588c-0.477,0-0.827-0.027-1.05-0.084h-0.672c-1.289,0-2.395,0.378-3.318,1.134
		c-0.924,0.756-1.386,1.541-1.386,2.352c0,0.812,0.084,1.47,0.252,1.974l2.016,6.72c0.783,2.801,1.176,5.096,1.176,6.888
		c1.513-0.224,2.701-0.699,3.57-1.428c0.867-0.728,1.861-1.932,2.982-3.612C105.778,48.969,105.946,48.856,106.114,48.856z
		 M91.077,59.608c2.184,0,3.667-1.092,4.452-3.276c-4.481,0-7.896-0.924-10.248-2.771c0.111,1.289,0.783,2.618,2.016,3.99
		C88.529,58.923,89.788,59.608,91.077,59.608z M95.614,55.324c0.055-0.279,0.084-0.867,0.084-1.764c0-0.896-0.407-2.995-1.219-6.3
		c-0.812-3.304-1.218-5.376-1.218-6.216c0-0.84,0.027-1.372,0.084-1.596c-1.457,1.512-3.836,5.544-7.14,12.095
		c2.352,1.345,4.116,2.283,5.292,2.814C92.673,54.892,94.045,55.213,95.614,55.324z"/>
	<path d="M134.505,34.325c0,0.953-4.733,2.772-14.196,5.46c-2.521,4.872-4.062,7.98-4.62,9.324
		c-1.457,3.473-2.184,6.804-2.184,9.996c0,1.848,0.615,2.771,1.848,2.771c1.512,0,3.499-1.062,5.964-3.191l3.78-3.276
		c0.168,0,0.252,0.084,0.252,0.252s-0.084,0.42-0.252,0.756c-0.896,1.345-2.409,2.843-4.536,4.494
		c-2.129,1.651-3.809,2.479-5.04,2.479c-2.801,0-4.2-1.709-4.2-5.124c0-2.464,0.615-5.516,1.848-9.156
		c-0.56-1.567-1.68-2.715-3.359-3.444c-0.504-0.223-1.26-0.532-2.269-0.924c-1.008-0.391-1.82-0.727-2.436-1.008
		c-0.617-0.279-0.924-0.853-0.924-1.722c0-0.868,0.391-1.386,1.176-1.554h2.268c2.911,0,6.02-0.336,9.324-1.008l8.064-18.06
		c0.391-1.008,1.329-1.512,2.813-1.512c1.483,0,2.227,0.281,2.227,0.84c0,0.168-1.051,2.562-3.15,7.182s-3.263,7.043-3.486,7.266
		l-1.428,1.344l-1.008,2.016c1.344-0.391,5.431-1.792,12.264-4.2c0.56-0.112,0.91-0.168,1.05-0.168S134.505,34.213,134.505,34.325z
		 M116.361,40.876c-3.137,0.729-5.964,1.289-8.484,1.68c2.911,1.512,4.788,3.305,5.629,5.376
		C114.064,46.365,115.017,44.014,116.361,40.876z"/>
</g>
<g>
	<path d="M142.248,8.904l-0.168-4.62c0-0.391,0.112-0.588,0.336-0.588c0.055,0,0.139,0.141,0.252,0.42
		c0.336,1.961,0.504,3.81,0.504,5.544c0,1.737,0,2.97,0,3.696c1.792-0.111,2.911-0.168,3.36-0.168c2.911,0,6.439,0.449,10.584,1.344
		c3.136-2.967,6.439-4.452,9.912-4.452c1.902,0,3.541,0.687,4.914,2.059c1.371,1.373,2.058,3.065,2.058,5.082
		c0,0.729-0.14,1.092-0.42,1.092c-0.112,0-0.309-0.756-0.588-2.268c-0.336-2.353-2.045-3.528-5.124-3.528
		c-2.24,0-4.564,1.008-6.973,3.024c3.248,1.008,6.076,2.436,8.484,4.283c2.912,2.353,4.368,4.985,4.368,7.896
		c0,3.584-2.072,6.44-6.216,8.567c-3.137,1.625-6.749,2.55-10.836,2.772c10.975,5.097,16.464,11.145,16.464,18.144
		c0,3.306-1.373,6.062-4.116,8.274c-2.744,2.212-5.796,3.318-9.156,3.318c-5.207,0-9.744-0.617-13.607-1.849l-12.6-5.208
		c-2.969,3.583-5.796,5.936-8.484,7.057c-2.633,1.287-6.329,1.932-11.088,1.932c-2.073,0-4.061-0.701-5.964-2.1
		c-2.129-1.457-3.192-3.306-3.192-5.544c0-2.239,1.147-3.948,3.444-5.124c2.296-1.177,4.927-1.765,7.896-1.765
		c2.968,0,6.384,0.588,10.248,1.765c4.255-4.872,7.867-11.677,10.836-20.412c2.464-7.561,4.003-15.176,4.62-22.849
		c-10.08,0.729-17.837,3.894-23.268,9.492c-2.129,2.297-3.192,4.733-3.192,7.309c0,4.256,2.352,7.364,7.056,9.323
		c0.615,0.336,1.399,0.603,2.352,0.798c0.951,0.197,1.428,0.379,1.428,0.547c0,0.28-0.168,0.42-0.504,0.42l-0.252-0.084
		c-3.249-0.224-6.384-1.624-9.408-4.2c-3.024-2.575-4.536-5.46-4.536-8.652c0-2.407,0.979-4.591,2.94-6.552
		c5.823-5.991,14.979-9.24,27.468-9.744C142.192,11.341,142.248,9.857,142.248,8.904z M115.032,65.772
		c-1.064,0-1.596-0.197-1.596-0.588c0-0.281,0.475-0.42,1.428-0.42c3.696,0,7.392-1.988,11.088-5.964
		c-3.528-1.231-6.665-1.849-9.408-1.849c-2.744,0-5.124,0.435-7.14,1.303c-2.016,0.868-3.024,2.282-3.024,4.241
		c0,1.96,0.924,3.528,2.772,4.704c1.624,1.12,3.654,1.681,6.09,1.681s5.235-0.827,8.4-2.479c3.163-1.652,5.473-3.569,6.93-5.754
		l-3.192-1.428C123.516,63.589,119.401,65.772,115.032,65.772z M156.193,15.541c-3.36-0.673-6.23-1.009-8.61-1.009
		c-2.381,0-3.878,0.029-4.494,0.084c-0.449,7.785-1.877,15.485-4.284,23.101c-2.913,8.849-6.497,15.765-10.752,20.748l3.192,1.092
		c2.184-2.353,4.536-6.229,7.056-11.634s5.235-11.186,8.148-17.347C149.696,23.97,152.945,18.957,156.193,15.541z M170.052,59.809
		c0-6.607-4.451-12.04-13.355-16.296l-4.788-2.017c-0.112-0.111-0.168-0.391-0.168-0.84c0-1.455,0.756-2.352,2.269-2.688h1.596
		c0.727,0,1.65-0.111,2.771-0.336c3.136-0.616,5.713-1.681,7.729-3.192c2.406-1.959,3.611-4.284,3.611-6.972
		c0-2.688-0.938-4.956-2.813-6.805c-1.877-1.848-4.215-3.247-7.015-4.199c-3.359,3.023-6.439,7.476-9.24,13.355
		c-1.68,3.585-4.06,8.807-7.139,15.666c-3.081,6.86-6.048,11.915-8.904,15.162c5.095,1.903,9.492,3.457,13.188,4.662
		c3.696,1.203,7.531,1.806,11.508,1.806C166.468,67.116,170.052,64.681,170.052,59.809z"/>
	<path d="M199.62,18.9c-0.449,0.225-0.953,0.645-1.512,1.26c-10.305,19.209-15.457,31.557-15.457,37.044
		c0,1.849,0.616,2.772,1.849,2.772c1.567,0,3.751-1.231,6.552-3.696c0.447-0.391,0.77-0.672,0.967-0.84
		c0.195-0.168,0.265-0.252,0.209-0.252c0.224,0,0.336,0.084,0.336,0.252s-0.112,0.42-0.336,0.756
		c-2.465,3.473-4.984,5.208-7.56,5.208c-2.801,0-4.2-1.482-4.2-4.452c0-2.967,1.428-8.315,4.284-16.044
		c-1.4,1.904-2.381,2.856-2.94,2.856c-0.168,0-0.252-0.056-0.252-0.168c0-0.111,0.742-1.134,2.227-3.066
		c1.482-1.932,2.281-3.01,2.394-3.233c1.735-5.04,4.339-11.088,7.812-18.145c3.473-7.056,5.852-11.76,7.141-14.111
		c0.447-0.952,1.387-1.429,2.814-1.429s2.142,0.197,2.142,0.588C206.088,4.593,203.932,9.492,199.62,18.9z"/>
	<path d="M207.18,49.896c0.112,0,0.168,0.057,0.168,0.168c0,0.953-1.541,3.053-4.62,6.3c-2.465,2.465-4.34,3.696-5.628,3.696
		c-2.856,0-4.284-1.428-4.284-4.284c0-2.127,0.56-4.815,1.68-8.063l-1.512,2.352c-0.729,1.232-1.232,1.848-1.512,1.848
		c-0.113,0-0.168-0.153-0.168-0.462c0-0.307,0.42-1.021,1.26-2.142c0.84-1.119,2.071-3.415,3.696-6.888
		c0.448-1.177,1.063-2.491,1.849-3.948c0.279-0.504,0.937-0.756,1.973-0.756s1.555,0.28,1.555,0.84c0,0.561-0.281,1.4-0.84,2.52
		c-0.561,1.121-1.037,1.765-1.428,1.933c-2.913,5.824-4.369,10.108-4.369,12.852c0,1.849,0.616,2.772,1.849,2.772
		c2.017,0,4.228-1.456,6.636-4.368c1.008-1.176,1.624-1.89,1.848-2.143c0.224-0.252,0.448-0.517,0.673-0.798
		c0.224-0.279,0.42-0.504,0.588-0.672C206.871,50.373,207.068,50.121,207.18,49.896z M204.575,27.049
		c1.231-0.56,1.988-0.84,2.269-0.84s0.42,0.07,0.42,0.21s-0.645,0.938-1.933,2.394l-1.26,2.604c-0.504,1.12-1.148,1.68-1.932,1.68
		c-1.121,0-1.68-0.588-1.68-1.764c0-0.56,0.378-1.273,1.134-2.143C202.35,28.323,203.343,27.609,204.575,27.049z"/>
	<path d="M205.079,61.908l4.705-21.252c-0.225-0.783-0.841-2.295-1.849-4.536c0-0.391,0.476-0.756,1.428-1.092
		c2.8-1.062,4.606-1.596,5.418-1.596s1.218,0.252,1.218,0.756c-2.072,5.153-3.5,8.736-4.283,10.752c0,0.168,0,0.336,0,0.504
		c0,1.736-0.252,2.604-0.756,2.604c-0.113,0-0.197-0.084-0.252-0.252c-1.177,3.527-1.988,6.104-2.437,7.728
		c2.575-4.2,5.208-7.867,7.896-11.004c4.201-4.872,7.672-7.308,10.416-7.308c1.288,0,1.933,0.504,1.933,1.512
		c0,0.393-1.625,6.552-4.872,18.479c3.247-2.406,5.768-4.983,7.561-7.728c0.279-0.336,0.488-0.504,0.629-0.504
		c0.14,0,0.211,0.084,0.211,0.252s-0.084,0.393-0.252,0.672c-2.465,4.368-5.461,7.841-8.988,10.416
		c-0.281,0.336-0.631,0.504-1.051,0.504s-0.629-0.252-0.629-0.756s0.336-2.407,1.008-5.712c0.672-3.304,1.161-5.823,1.47-7.561
		c0.308-1.734,0.517-3.919,0.63-6.552c-2.297,1.121-5.124,3.528-8.484,7.225c-3.359,3.695-5.586,6.58-6.678,8.651
		c-1.092,2.072-1.793,3.768-2.1,5.082c-0.309,1.315-0.701,1.975-1.176,1.975c-0.476,0-0.715-0.365-0.715-1.093V61.908z
		 M211.044,35.616c-0.281,0.225-0.812,0.504-1.597,0.84l0.841,1.933L211.044,35.616z"/>
	<path d="M253.211,63.505c1.12,0,2.101-0.393,2.94-1.177c0.84-0.784,1.329-1.176,1.47-1.176c0.139,0,0.21,0.084,0.21,0.252
		s-0.057,0.42-0.168,0.756c-1.344,2.185-3.221,3.276-5.629,3.276s-5.138-1.331-8.189-3.99c-3.053-2.659-5.615-5.473-7.686-8.441
		l-3.192,5.208c-1.344,2.129-2.633,3.695-3.864,4.704c-0.447,1.287-1.314,1.932-2.604,1.932c-0.615,0-0.924-0.225-0.924-0.672
		c0-1.568,1.625-6.523,4.871-14.868l-1.596,0.168c-0.336,0-0.504-0.055-0.504-0.168c0-0.783,0.84-1.204,2.52-1.26
		c3.08-7.504,5.125-12.433,6.133-14.784c-2.576,1.4-4.425,2.1-5.544,2.1c-0.225,0-0.337-0.084-0.337-0.252
		c0-0.559,0.392-1.008,1.177-1.344c0.111-0.055,0.336-0.139,0.672-0.252c1.903-0.896,3.612-1.903,5.124-3.024l9.492-21.168
		c0.615-1.287,1.932-1.932,3.947-1.932c1.064,0,1.597,0.309,1.597,0.924c0,0.225-0.252,0.98-0.756,2.269
		c-1.625,4.424-4.257,9.548-7.896,15.371c-1.345,1.681-2.269,3.054-2.773,4.116c-0.84,1.625-1.805,3.528-2.897,5.712
		c-1.092,2.185-2.954,6.161-5.586,11.929c1.12-1.063,1.876-1.597,2.269-1.597c0.391,0,0.756,0.309,1.092,0.925
		c0.895-0.28,1.707-0.589,2.436-0.925c0.168-0.391,0.938-1.776,2.311-4.157c1.371-2.38,2.953-4.55,4.746-6.511
		c2.631-2.967,4.814-4.452,6.552-4.452c1.735,0,2.604,1.877,2.604,5.629c0,4.648-5.098,8.147-15.289,10.5
		c-0.336,0.672-0.924,1.596-1.764,2.771c1.735,3.08,3.835,5.909,6.301,8.484C247.722,61.796,250.634,63.505,253.211,63.505z
		 M235.572,52.08c-0.617-1.062-1.205-2.211-1.765-3.443l-0.924,0.084c-1.008,2.52-2.156,6.692-3.444,12.516
		C231.455,58.885,233.499,55.833,235.572,52.08z M251.111,36.12c0-1.566-0.364-2.352-1.092-2.352c-1.232,0-3.641,2.717-7.224,8.148
		l-2.101,3.779C247.638,43.177,251.111,39.984,251.111,36.12z"/>
</g>
<g>
	<path d="M72.642,96.746v-0.633c0.131-0.035,0.348-0.085,0.649-0.149c0.427-0.094,0.745-0.19,0.955-0.29
		c0.119-0.182,0.178-0.434,0.178-0.756l-0.01-1.037l0.02-2.004l-0.01-0.475c0.053-1.16,0.079-1.758,0.079-1.793l-0.02-1.169
		l0.029-0.475l-0.049-1.002l-0.02-0.378c-0.006-0.059-0.029-0.152-0.069-0.281c-0.271-0.111-0.709-0.182-1.317-0.211
		c-0.146-0.006-0.261-0.015-0.347-0.026l-0.02-0.773l2.831,0.105c0.35,0.012,0.568,0.018,0.654,0.018
		c0.389,0,1.013-0.023,1.871-0.07c0.481-0.029,0.785-0.047,0.911-0.053c0.008,0.111,0.012,0.205,0.012,0.281
		c0,0.1-0.008,0.229-0.024,0.387c-0.264,0.082-0.565,0.159-0.904,0.232c-0.339,0.073-0.617,0.148-0.835,0.225
		c-0.039,0.152-0.059,0.372-0.059,0.659c0,0.252,0.01,0.457,0.03,0.615c-0.02,0.99-0.03,1.752-0.03,2.285l0.01,2.32l-0.05,1.178
		l0.04,1.758l-0.029,0.334c0,0.047,0.02,0.114,0.059,0.202c0.4,0.076,0.765,0.129,1.093,0.158c0.06,0.006,0.26,0.029,0.601,0.07
		c0.026,0.176,0.04,0.322,0.04,0.439c0,0.064-0.003,0.164-0.01,0.299c-0.085,0-0.151,0.003-0.198,0.009
		c-0.211,0.012-0.333,0.018-0.366,0.018c-0.046,0-0.132-0.009-0.257-0.026c-0.092-0.012-0.53-0.053-1.315-0.123l-1.75-0.018
		c-0.349,0-0.857,0.029-1.522,0.088C73.057,96.72,72.774,96.74,72.642,96.746z"/>
	<path d="M87.671,96.737L87.7,96.14c0.825-0.094,1.35-0.243,1.575-0.448c0.145-0.141,0.258-0.507,0.337-1.099l0.128-3.129
		l0.149-3.182c0.013-0.193,0.02-0.311,0.02-0.352c0-0.826-0.054-1.304-0.163-1.433s-0.533-0.255-1.273-0.378
		c-0.185-0.035-0.33-0.064-0.436-0.088c-0.013-0.146-0.02-0.27-0.02-0.369v-0.272c0.244-0.018,0.531-0.026,0.86-0.026l2.897,0.088
		c0.066,0.006,0.158,0.012,0.277,0.018l0.455,0.018c0.112,0.119,0.226,0.274,0.343,0.467c0.242,0.428,0.564,1.056,0.966,1.883
		l0.114,0.234l1.539,2.982c0.037,0.069,0.091,0.171,0.163,0.307c0.109,0.206,0.215,0.405,0.317,0.598
		c0.102,0.191,0.213,0.401,0.333,0.628c0.12,0.227,0.228,0.43,0.324,0.609c0.092-0.141,0.182-0.296,0.267-0.466
		c0.264-0.539,0.521-1.034,0.772-1.485c0.436-0.797,1.027-2.016,1.773-3.656c0.119-0.264,0.315-0.661,0.589-1.191
		c0.274-0.53,0.424-0.81,0.45-0.839c0.06-0.047,0.178-0.07,0.356-0.07c0.066,0,0.168-0.003,0.307-0.009
		c0.343-0.018,0.755-0.032,1.236-0.044c0.692-0.006,1.248-0.025,1.667-0.058c0.418-0.032,0.654-0.048,0.708-0.048
		c0.066,0,0.145,0.006,0.237,0.018c0.006,0.082,0.01,0.146,0.01,0.193l-0.02,0.264c0,0.053-0.003,0.132-0.01,0.237
		c-0.621,0.082-1.125,0.205-1.515,0.369c-0.271,0.117-0.406,0.264-0.406,0.439v0.132l0.17,2.689c0.02,0.246,0.073,1.468,0.16,3.665
		c0.02,0.492,0.063,1.116,0.13,1.872c0.014,0.094,0.02,0.167,0.02,0.22c0.007,0.141,0.042,0.231,0.104,0.272
		c0.063,0.041,0.655,0.211,1.778,0.51c0.006,0.094,0.01,0.164,0.01,0.211c0,0.123-0.003,0.246-0.01,0.369
		c-0.178,0-0.627-0.033-1.347-0.101c-0.719-0.067-1.393-0.102-2.02-0.102c-0.958,0-1.888,0.035-2.793,0.105
		c-0.119,0.012-0.234,0.021-0.346,0.026l0.02-0.606c0.271-0.094,0.63-0.173,1.08-0.237c0.317-0.047,0.518-0.126,0.604-0.237
		s0.129-0.422,0.129-0.932c0-0.193-0.003-0.363-0.01-0.51c-0.033-0.615-0.053-1.471-0.059-2.566l-0.168-3.103
		c-0.02-0.439-0.043-0.744-0.069-0.914l-2.466,5.027c-0.06,0.117-0.148,0.287-0.268,0.51c-0.152,0.287-0.254,0.483-0.307,0.589
		c-0.508,1.084-0.861,1.913-1.06,2.487c-0.053,0.146-0.132,0.337-0.237,0.571l-0.761-0.009l-0.535-1.345
		c-0.159-0.352-0.43-0.885-0.812-1.6c-0.225-0.416-0.4-0.753-0.525-1.011c-0.06-0.105-0.103-0.185-0.129-0.237l-0.119-0.22
		c-0.007-0.035-0.017-0.064-0.03-0.088l-1.477-2.821l-0.901-1.714L90.7,91.912l-0.069,2.698c0,0.445,0.094,0.764,0.282,0.954
		s0.592,0.353,1.213,0.487l0.476,0.105v0.642c-0.383-0.006-0.794-0.031-1.233-0.074c-0.439-0.045-1.022-0.066-1.748-0.066
		C89.469,96.658,88.819,96.685,87.671,96.737z"/>
	<path d="M112.998,96.737l0.02-0.598c0.125-0.035,0.347-0.079,0.664-0.132c0.508-0.088,0.817-0.167,0.926-0.237
		c0.109-0.07,0.243-0.24,0.401-0.51l1.999-4.646l2.346-5.462c0.219,0,0.429,0,0.628,0h0.449l0.089,0.158l1.722,3.621
		c0.389,0.768,0.739,1.514,1.049,2.237c0.31,0.724,0.577,1.313,0.801,1.771c0.132,0.275,0.313,0.688,0.544,1.239
		c0.119,0.299,0.3,0.674,0.544,1.125c0.132,0.246,0.231,0.39,0.297,0.431c0.119,0.088,0.312,0.146,0.579,0.176
		c0.268,0.029,0.556,0.097,0.867,0.202c0.033,0.193,0.049,0.337,0.049,0.431c0,0.041-0.003,0.105-0.01,0.193
		c-0.489,0-1.027-0.021-1.614-0.062s-1.116-0.062-1.584-0.062c-0.521,0-0.898,0.006-1.129,0.018l-1.684,0.079l-0.485,0.018
		c0-0.205,0.01-0.401,0.03-0.589l1.099-0.211c0.33-0.076,0.521-0.135,0.575-0.176c0.066-0.059,0.099-0.126,0.099-0.202
		s-0.016-0.155-0.049-0.237l-0.393-0.861l-0.777-1.723l-3.781-0.009c-0.14,0.281-0.431,0.97-0.872,2.065
		c-0.125,0.311-0.188,0.521-0.188,0.633c0,0.152,0.046,0.261,0.139,0.325c0.152,0.111,0.442,0.19,0.872,0.237
		c0.059,0.012,0.293,0.044,0.703,0.097c0.006,0.211,0.01,0.357,0.01,0.439c0,0.064-0.007,0.132-0.02,0.202
		c-0.409,0-1.386-0.05-2.931-0.149l-0.406,0.062c-0.488,0.07-0.954,0.105-1.396,0.105H112.998z M117.657,91.798
		c1.543,0.018,2.453,0.026,2.73,0.026l0.247-0.009c-0.198-0.521-0.456-1.13-0.772-1.823c-0.317-0.695-0.574-1.224-0.772-1.587
		L117.657,91.798z"/>
	<path d="M146.783,86.103c0.046,0.17,0.099,0.505,0.158,1.006c0.06,0.502,0.089,0.866,0.089,1.095c0,0.088-0.023,0.196-0.068,0.325
		c-0.285-0.006-0.525-0.029-0.724-0.07c-0.501-0.686-0.855-1.116-1.06-1.292c-0.383-0.328-0.875-0.606-1.476-0.835
		c-0.442-0.17-0.951-0.255-1.525-0.255c-1.103,0-2.073,0.438-2.912,1.317c-0.839,0.878-1.258,2.184-1.258,3.916
		c0,0.814,0.164,1.604,0.49,2.371s0.817,1.368,1.471,1.805c0.653,0.437,1.422,0.654,2.307,0.654c0.429,0,0.885-0.05,1.367-0.148
		c0.244-0.047,0.442-0.141,0.594-0.28c0.105-0.094,0.175-0.233,0.208-0.42c0.053-0.339,0.079-0.82,0.079-1.444
		c0-0.606-0.01-1.023-0.029-1.251c-0.046-0.088-0.091-0.145-0.134-0.171s-0.177-0.068-0.401-0.127l-0.881-0.21
		c-0.191-0.041-0.31-0.091-0.356-0.149c-0.013-0.076-0.02-0.132-0.02-0.167c0-0.082,0.023-0.196,0.069-0.343
		c0.119-0.035,0.201-0.053,0.248-0.053c0.719,0,1.343,0.021,1.872,0.063c0.185,0.011,0.386,0.016,0.604,0.016l1.565-0.018
		l0.663-0.018c0.08-0.006,0.301,0,0.664,0.018c0.006,0.152,0.01,0.281,0.01,0.387c0,0.064-0.023,0.138-0.069,0.22
		c-0.112,0.06-0.304,0.135-0.575,0.224c-0.27,0.09-0.422,0.149-0.455,0.179c-0.053,0.047-0.089,0.12-0.109,0.22
		c-0.02,0.1-0.029,0.447-0.029,1.044c0,0.69-0.004,1.104-0.01,1.237c-0.026,0.434-0.039,0.679-0.039,0.737
		c0,0.217-0.033,0.352-0.1,0.403c-0.185,0.164-0.757,0.35-1.718,0.558c-0.96,0.208-2.078,0.312-3.352,0.312
		c-0.891,0-1.666-0.063-2.322-0.189c-0.657-0.125-1.217-0.312-1.679-0.558c-0.621-0.328-1.152-0.727-1.594-1.195
		c-0.442-0.469-0.772-0.976-0.991-1.521c-0.304-0.773-0.456-1.544-0.456-2.312c0-0.861,0.225-1.734,0.674-2.619
		c0.33-0.639,0.793-1.215,1.391-1.728s1.345-0.921,2.243-1.226s1.875-0.457,2.932-0.457c0.132,0,0.346,0.015,0.644,0.044
		c0.805,0,1.558,0.089,2.258,0.268S146.321,85.856,146.783,86.103z"/>
	<path d="M156.564,85.364c0.375,0.018,0.703,0.044,0.979,0.079c0.521,0.064,1.126,0.097,1.812,0.097
		c0.237,0,0.849-0.018,1.832-0.053c1.472-0.053,2.803-0.079,3.991-0.079l1.793-0.018c0.402,0,0.996,0.044,1.782,0.132
		c0.118,0.117,0.179,0.275,0.179,0.475v1.811l0.02,0.36c0,0.035-0.004,0.088-0.01,0.158l-0.406,0.018
		c-0.053,0-0.166-0.006-0.337-0.018c-0.06-0.117-0.139-0.29-0.237-0.519l-0.396-0.624c-0.152-0.264-0.363-0.533-0.634-0.809
		c-0.165-0.041-0.376-0.064-0.634-0.07c-0.066-0.006-0.268-0.021-0.604-0.044c-0.614-0.047-1.274-0.07-1.98-0.07
		c-0.806,0-1.524,0.012-2.159,0.035c-0.02,0.146-0.029,0.724-0.029,1.731l0.01,1.477v1.107c0.166,0.018,0.308,0.026,0.427,0.026
		c1.185,0,2.028-0.021,2.53-0.062c0.504-0.041,0.814-0.098,0.934-0.172c0.119-0.072,0.225-0.2,0.317-0.382
		c0.06-0.129,0.175-0.56,0.348-1.292l0.128-0.009l0.575,0.009c0.026,0.521,0.04,0.917,0.04,1.187c0,0.615-0.006,1.011-0.016,1.187
		s-0.015,0.313-0.015,0.413c0,0.158,0.01,0.412,0.03,0.761c0.02,0.349,0.029,0.607,0.029,0.777v0.193h-0.703
		c-0.027-0.094-0.076-0.287-0.148-0.58c-0.133-0.545-0.252-0.885-0.357-1.02c-0.08-0.105-0.213-0.185-0.397-0.237
		c-0.132-0.041-0.622-0.062-1.469-0.062c-0.999,0-1.75,0.023-2.253,0.07c0,0.152,0,0.252,0,0.299c0,0.697,0.014,1.277,0.039,1.74
		l-0.02,1.898c0,0.223,0.09,0.375,0.268,0.457c0.271,0.123,1.1,0.185,2.486,0.185c0.917,0,1.696-0.062,2.336-0.185
		c0.443-0.088,0.832-0.284,1.17-0.589c0.448-0.393,0.821-0.943,1.119-1.652c0.204-0.018,0.372-0.026,0.504-0.026
		c0.073,0,0.182,0.003,0.327,0.009c-0.02,0.146-0.036,0.27-0.049,0.369l-0.058,0.264l-0.361,1.661l-0.176,1.002
		c-0.43,0.018-0.77,0.026-1.021,0.026c-0.369,0-1.357-0.029-2.963-0.088c-1.13-0.041-2.491-0.062-4.083-0.062
		c-0.793,0-1.768,0.029-2.924,0.088h-0.417l-1.199,0.035v-0.606c0.126-0.029,0.377-0.062,0.754-0.097
		c0.686-0.07,1.161-0.164,1.426-0.281c0.072-0.17,0.108-0.384,0.108-0.642c0-0.1-0.003-0.27-0.01-0.51l0.01-0.272l-0.03-3.313
		l0.011-0.993l-0.05-1.406l0.01-0.993l-0.089-1.09c0-0.029-0.007-0.088-0.021-0.176c-0.065-0.064-0.164-0.105-0.297-0.123
		c-0.072-0.012-0.172-0.029-0.297-0.053c-0.376-0.07-0.739-0.111-1.089-0.123c-0.126-0.006-0.271-0.018-0.437-0.035L156.564,85.364z
		"/>
	<path d="M186.298,85.619c0.065,0.199,0.125,0.501,0.178,0.905c0.08,0.604,0.119,1.072,0.119,1.406c0,0.105-0.014,0.22-0.039,0.343
		l-0.1,0.026l-0.713-0.044l-0.119-0.018c-0.291-0.773-0.581-1.298-0.871-1.573c-0.502-0.469-1.094-0.703-1.773-0.703
		c-0.646,0-1.16,0.15-1.539,0.453c-0.381,0.302-0.57,0.676-0.57,1.121c0,0.376,0.188,0.736,0.564,1.082
		c0.369,0.347,1.155,0.677,2.357,0.992c0.402,0.105,0.891,0.274,1.461,0.508c0.572,0.234,1.006,0.488,1.303,0.764
		c0.396,0.363,0.668,0.714,0.816,1.051s0.223,0.758,0.223,1.262c0,0.551-0.115,1.093-0.347,1.626
		c-0.126,0.282-0.327,0.549-0.604,0.801c-0.197,0.176-0.504,0.382-0.92,0.619s-0.848,0.409-1.293,0.515s-1.019,0.158-1.719,0.158
		c-0.461,0-1.014-0.059-1.653-0.176l-1.188-0.308c-0.33-0.082-0.538-0.155-0.624-0.22c-0.032-0.023-0.062-0.079-0.089-0.167v-0.097
		c0-0.064-0.017-0.466-0.049-1.204c-0.014-0.381-0.021-0.65-0.021-0.809V93.6l0.921-0.018c0.316,0.652,0.521,1.047,0.613,1.182
		c0.204,0.3,0.43,0.543,0.678,0.728c0.246,0.186,0.541,0.333,0.885,0.441c0.342,0.108,0.715,0.163,1.117,0.163
		c0.355,0,0.748-0.067,1.176-0.202s0.773-0.356,1.033-0.665c0.26-0.308,0.391-0.638,0.391-0.989c0-0.435-0.229-0.836-0.684-1.206
		c-0.277-0.229-1.023-0.534-2.238-0.915c-1.215-0.382-2.057-0.722-2.525-1.021s-0.838-0.699-1.109-1.2
		c-0.27-0.501-0.405-0.983-0.405-1.446c0-0.933,0.376-1.724,1.129-2.375c0.753-0.65,1.862-0.976,3.327-0.976
		c0.317,0,0.786,0.05,1.406,0.149C185.179,85.309,185.677,85.432,186.298,85.619z"/>
</g>
</svg>
