<?xml version="1.0" encoding="utf-8"?>
<!-- Generator: Adobe Illustrator 17.0.0, SVG Export Plug-In . SVG Version: 6.00 Build 0)  -->
<!DOCTYPE svg PUBLIC "-//W3C//DTD SVG 1.1//EN" "http://www.w3.org/Graphics/SVG/1.1/DTD/svg11.dtd">
<svg version="1.1" id="Capa_1" xmlns="http://www.w3.org/2000/svg" xmlns:xlink="http://www.w3.org/1999/xlink" x="0px" y="0px"
	 width="50px" height="50px" viewBox="615 375 50 50" enable-background="new 615 375 50 50" xml:space="preserve">
<g id="pinterest_2_">
	<g>
		<path fill="#AFAFAF" d="M640.002,375C626.194,375,615,386.193,615,399.997c0,10.239,6.155,19.033,14.965,22.899
			c-0.075-1.747-0.016-3.84,0.431-5.739c0.483-2.031,3.22-13.624,3.22-13.624s-0.798-1.596-0.798-3.954
			c0-3.706,2.147-6.472,4.819-6.472c2.276,0,3.372,1.709,3.372,3.753c0,2.285-1.456,5.706-2.205,8.871
			c-0.626,2.653,1.33,4.816,3.943,4.816c4.738,0,7.929-6.086,7.929-13.292c0-5.478-3.69-9.579-10.403-9.579
			c-7.585,0-12.306,5.655-12.306,11.971c0,2.179,0.639,3.714,1.647,4.902c0.461,0.548,0.525,0.768,0.357,1.394
			c-0.12,0.461-0.392,1.568-0.509,2.006c-0.166,0.634-0.678,0.859-1.252,0.628c-3.492-1.429-5.117-5.25-5.117-9.551
			c0-7.103,5.989-15.616,17.864-15.616c9.546,0,15.831,6.905,15.831,14.319c0,9.807-5.454,17.135-13.493,17.135
			c-2.698,0-5.237-1.461-6.106-3.118c0,0-1.453,5.762-1.757,6.872c-0.532,1.926-1.57,3.855-2.517,5.356
			c2.247,0.663,4.624,1.025,7.086,1.025c13.807,0,24.998-11.192,24.998-25.002C665,386.193,653.809,375,640.002,375z"/>
	</g>
</g>
</svg>
